<?xml version="1.0" encoding="utf-8"?>
<svg version="1.1" xmlns="http://www.w3.org/2000/svg" xmlns:xlink="http://www.w3.org/1999/xlink" x="0px" y="0px"
	 viewBox="0 0 102 30" enable-background="new 0 0 102 30" xml:space="preserve">
<g id="Layer_1">
	<g>
		<g>
			<path fill="#FDC82F" d="M66.093,11.741c-1.34-3.83-5.063-6.718-11.241-7.467C29.995,2.757,11.01,30.405,0.266,19.457
				c1.01,1.262,4.916,10.126,16.772,8.914C29.344,27.09,48.643,6.578,66.093,11.741z"/>
			<path fill="#7AB800" d="M56.734,21.947c6.303-0.067,11.392-2.08,11.365-4.494c-0.026-2.414-5.157-4.313-11.461-4.244
				c-6.302,0.07-11.391,2.08-11.365,4.494C45.3,20.116,50.432,22.015,56.734,21.947z"/>
			<path fill="#E98300" d="M40.75,21.405c2.527,3.132,7.984,5.963,15.561,5.66c12.327-0.493,22.327-4.592,47.191-27.014
				c-14.853,11.115-32.843,22.467-47.594,23.58C45.923,24.381,41.557,22.014,40.75,21.405z"/>
		</g>
	</g>
</g>
</svg>
